<?xml version="1.0" encoding="UTF-8" standalone="no"?>
<!DOCTYPE svg PUBLIC "-//W3C//DTD SVG 1.0//EN" "http://www.w3.org/TR/2001/PR-SVG-20010719/DTD/svg10.dtd">
<svg width="64cm" height="48cm" viewBox="230 -277 1270 958" xmlns="http://www.w3.org/2000/svg" xmlns:xlink="http://www.w3.org/1999/xlink">
  <g>
    <polygon style="fill: #ffffff" points="232,360 376.6,360 388.6,372 388.6,426 232,426 "/>
    <polygon style="fill: none; fill-opacity:0; stroke-width: 2; stroke: #ffffff" points="232,360 376.6,360 388.6,372 388.6,426 232,426 "/>
    <polyline style="fill: none; fill-opacity:0; stroke-width: 1; stroke: #ffffff" points="376.6,360 376.6,372 388.6,372 "/>
    <text font-size="12.8" style="fill: #000000;text-anchor:start;font-family:monospace;font-style:normal;font-weight:normal" x="239" y="383.65">
      <tspan x="239" y="383.65">Synchronized /</tspan>
      <tspan x="239" y="399.65">Frequent updates /</tspan>
      <tspan x="239" y="415.65">Pull on-demand</tspan>
    </text>
  </g>
  <g>
    <rect style="fill: #0596d2" x="360" y="20" width="260" height="340"/>
    <rect style="fill: none; fill-opacity:0; stroke-width: 2; stroke: #000000" x="360" y="20" width="260" height="340"/>
    <rect style="fill: #0596d2" x="360" y="0" width="96.4" height="20"/>
    <rect style="fill: none; fill-opacity:0; stroke-width: 2; stroke: #000000" x="360" y="0" width="96.4" height="20"/>
    <text font-size="12.7998" style="fill: #000000;text-anchor:start;font-family:monospace;font-style:normal;font-weight:normal" x="362" y="14">Strage level</text>
  </g>
  <g>
    <polyline style="fill: none; fill-opacity:0; stroke-width: 2; stroke: #000000" points="550,570 550,460 380,460 380,176.472 "/>
    <polyline style="fill: none; fill-opacity:0; stroke-width: 2; stroke: #000000" points="388,190.236 380,174.236 372,190.236 "/>
    <text font-size="12.7998" style="fill: #000000;text-anchor:middle;font-family:monospace;font-style:normal;font-weight:normal" x="465" y="456"></text>
    <text font-size="12.7998" style="fill: #000000;text-anchor:start;font-family:monospace;font-style:normal;font-weight:normal" x="554" y="566"></text>
    <text font-size="12.7998" style="fill: #000000;text-anchor:start;font-family:monospace;font-style:normal;font-weight:normal" x="391" y="184"></text>
  </g>
  <g>
    <rect style="fill: #6e824b" x="800" y="600" width="380" height="80"/>
    <rect style="fill: none; fill-opacity:0; stroke-width: 2; stroke: #000000" x="800" y="600" width="380" height="80"/>
    <rect style="fill: #6e824b" x="800" y="564" width="158" height="36"/>
    <rect style="fill: none; fill-opacity:0; stroke-width: 2; stroke: #000000" x="800" y="564" width="158" height="36"/>
    <text font-size="12.7998" style="fill: #000000;text-anchor:start;font-family:monospace;font-style:normal;font-weight:normal" x="802" y="578">&lt;&lt;external sources&gt;&gt;</text>
    <text font-size="12.7998" style="fill: #000000;text-anchor:start;font-family:monospace;font-style:normal;font-weight:normal" x="802" y="594">Environmental data</text>
  </g>
  <g>
    <rect style="fill: #ffffff" x="820" y="620" width="84.7" height="28"/>
    <rect style="fill: none; fill-opacity:0; stroke-width: 2; stroke: #000000" x="820" y="620" width="84.7" height="28"/>
    <text font-size="16" style="fill: #000000;text-anchor:middle;font-family:sans-serif;font-style:normal;font-weight:700" x="862.35" y="640">Elevation</text>
    <rect style="fill: #ffffff" x="820" y="648" width="84.7" height="8"/>
    <rect style="fill: none; fill-opacity:0; stroke-width: 2; stroke: #000000" x="820" y="648" width="84.7" height="8"/>
    <rect style="fill: #ffffff" x="820" y="656" width="84.7" height="8"/>
    <rect style="fill: none; fill-opacity:0; stroke-width: 2; stroke: #000000" x="820" y="656" width="84.7" height="8"/>
  </g>
  <g>
    <rect style="fill: #ffffff" x="960" y="620" width="71.4" height="28"/>
    <rect style="fill: none; fill-opacity:0; stroke-width: 2; stroke: #000000" x="960" y="620" width="71.4" height="28"/>
    <text font-size="16" style="fill: #000000;text-anchor:middle;font-family:sans-serif;font-style:normal;font-weight:700" x="995.7" y="640">Climate</text>
    <rect style="fill: #ffffff" x="960" y="648" width="71.4" height="8"/>
    <rect style="fill: none; fill-opacity:0; stroke-width: 2; stroke: #000000" x="960" y="648" width="71.4" height="8"/>
    <rect style="fill: #ffffff" x="960" y="656" width="71.4" height="8"/>
    <rect style="fill: none; fill-opacity:0; stroke-width: 2; stroke: #000000" x="960" y="656" width="71.4" height="8"/>
  </g>
  <g>
    <rect style="fill: #ffffff" x="1060" y="620" width="93.1" height="28"/>
    <rect style="fill: none; fill-opacity:0; stroke-width: 2; stroke: #000000" x="1060" y="620" width="93.1" height="28"/>
    <text font-size="16" style="fill: #000000;text-anchor:middle;font-family:sans-serif;font-style:normal;font-weight:700" x="1106.55" y="640">Landcover</text>
    <rect style="fill: #ffffff" x="1060" y="648" width="93.1" height="8"/>
    <rect style="fill: none; fill-opacity:0; stroke-width: 2; stroke: #000000" x="1060" y="648" width="93.1" height="8"/>
    <rect style="fill: #ffffff" x="1060" y="656" width="93.1" height="8"/>
    <rect style="fill: none; fill-opacity:0; stroke-width: 2; stroke: #000000" x="1060" y="656" width="93.1" height="8"/>
  </g>
  <g>
    <rect style="fill: #6e824b" x="800" y="460" width="385.3" height="80"/>
    <rect style="fill: none; fill-opacity:0; stroke-width: 2; stroke: #000000" x="800" y="460" width="385.3" height="80"/>
    <rect style="fill: #6e824b" x="800" y="424" width="381.3" height="36"/>
    <rect style="fill: none; fill-opacity:0; stroke-width: 2; stroke: #000000" x="800" y="424" width="381.3" height="36"/>
    <text font-size="12.7998" style="fill: #000000;text-anchor:start;font-family:monospace;font-style:normal;font-weight:normal" x="802" y="438">&lt;&lt;external sources&gt;&gt;</text>
    <text font-size="12.7998" style="fill: #000000;text-anchor:start;font-family:monospace;font-style:normal;font-weight:normal" x="802" y="454">national / international data for vis. / analysis</text>
  </g>
  <g>
    <rect style="fill: #ffffff" x="840" y="480" width="44.05" height="28"/>
    <rect style="fill: none; fill-opacity:0; stroke-width: 2; stroke: #000000" x="840" y="480" width="44.05" height="28"/>
    <text font-size="16" style="fill: #000000;text-anchor:middle;font-family:sans-serif;font-style:normal;font-weight:700" x="862.025" y="500">GBif</text>
    <rect style="fill: #ffffff" x="840" y="508" width="44.05" height="8"/>
    <rect style="fill: none; fill-opacity:0; stroke-width: 2; stroke: #000000" x="840" y="508" width="44.05" height="8"/>
    <rect style="fill: #ffffff" x="840" y="516" width="44.05" height="8"/>
    <rect style="fill: none; fill-opacity:0; stroke-width: 2; stroke: #000000" x="840" y="516" width="44.05" height="8"/>
  </g>
  <g>
    <rect style="fill: #ffffff" x="960" y="480" width="42.4" height="28"/>
    <rect style="fill: none; fill-opacity:0; stroke-width: 2; stroke: #000000" x="960" y="480" width="42.4" height="28"/>
    <text font-size="16" style="fill: #000000;text-anchor:middle;font-family:sans-serif;font-style:normal;font-weight:700" x="981.2" y="500">TRY</text>
    <rect style="fill: #ffffff" x="960" y="508" width="42.4" height="8"/>
    <rect style="fill: none; fill-opacity:0; stroke-width: 2; stroke: #000000" x="960" y="508" width="42.4" height="8"/>
    <rect style="fill: #ffffff" x="960" y="516" width="42.4" height="8"/>
    <rect style="fill: none; fill-opacity:0; stroke-width: 2; stroke: #000000" x="960" y="516" width="42.4" height="8"/>
  </g>
  <g>
    <rect style="fill: #ffffff" x="1060" y="480" width="25" height="28"/>
    <rect style="fill: none; fill-opacity:0; stroke-width: 2; stroke: #000000" x="1060" y="480" width="25" height="28"/>
    <text font-size="16" style="fill: #000000;text-anchor:middle;font-family:sans-serif;font-style:normal;font-weight:700" x="1072.5" y="500">...</text>
    <rect style="fill: #ffffff" x="1060" y="508" width="25" height="8"/>
    <rect style="fill: none; fill-opacity:0; stroke-width: 2; stroke: #000000" x="1060" y="508" width="25" height="8"/>
    <rect style="fill: #ffffff" x="1060" y="516" width="25" height="8"/>
    <rect style="fill: none; fill-opacity:0; stroke-width: 2; stroke: #000000" x="1060" y="516" width="25" height="8"/>
  </g>
  <g>
    <rect style="fill: #9bbe5a" x="360" y="460" width="380" height="220"/>
    <rect style="fill: none; fill-opacity:0; stroke-width: 2; stroke: #000000" x="360" y="460" width="380" height="220"/>
    <rect style="fill: #9bbe5a" x="360" y="424" width="211.9" height="36"/>
    <rect style="fill: none; fill-opacity:0; stroke-width: 2; stroke: #000000" x="360" y="424" width="211.9" height="36"/>
    <text font-size="12.7998" style="fill: #000000;text-anchor:start;font-family:monospace;font-style:normal;font-weight:normal" x="362" y="438">&lt;&lt;sources&gt;&gt;</text>
    <text font-size="12.7998" style="fill: #000000;text-anchor:start;font-family:monospace;font-style:normal;font-weight:normal" x="362" y="454">GFBio internal data sources</text>
  </g>
  <g>
    <rect style="fill: #ffffff" x="400" y="500" width="102.4" height="44"/>
    <rect style="fill: none; fill-opacity:0; stroke-width: 2; stroke: #000000" x="400" y="500" width="102.4" height="44"/>
    <text font-size="12.8" style="fill: #000000;text-anchor:middle;font-family:monospace;font-style:normal;font-weight:normal" x="451.2" y="515.2">&lt;&lt;archives&gt;&gt;</text>
    <text font-size="16" style="fill: #000000;text-anchor:middle;font-family:sans-serif;font-style:normal;font-weight:700" x="451.2" y="536">PANGAEA</text>
    <rect style="fill: #ffffff" x="400" y="544" width="102.4" height="20"/>
    <rect style="fill: none; fill-opacity:0; stroke-width: 2; stroke: #000000" x="400" y="544" width="102.4" height="20"/>
    <text font-size="12.8" style="fill: #000000;text-anchor:start;font-family:monospace;font-style:normal;font-weight:normal" x="403" y="557.2">+PANGAEA-DB</text>
    <rect style="fill: #ffffff" x="400" y="564" width="102.4" height="8"/>
    <rect style="fill: none; fill-opacity:0; stroke-width: 2; stroke: #000000" x="400" y="564" width="102.4" height="8"/>
  </g>
  <g>
    <rect style="fill: #ffffff" x="540" y="500" width="164" height="44"/>
    <rect style="fill: none; fill-opacity:0; stroke-width: 2; stroke: #000000" x="540" y="500" width="164" height="44"/>
    <text font-size="12.8" style="fill: #000000;text-anchor:middle;font-family:monospace;font-style:normal;font-weight:normal" x="622" y="515.2">&lt;&lt;archives&gt;&gt;</text>
    <text font-size="16" style="fill: #000000;text-anchor:middle;font-family:sans-serif;font-style:normal;font-weight:700" x="622" y="536">Collections</text>
    <rect style="fill: #ffffff" x="540" y="544" width="164" height="84"/>
    <rect style="fill: none; fill-opacity:0; stroke-width: 2; stroke: #000000" x="540" y="544" width="164" height="84"/>
    <text font-size="12.8" style="fill: #000000;text-anchor:start;font-family:monospace;font-style:normal;font-weight:normal" x="543" y="557.2">+DiversityCollection</text>
    <text font-size="12.8" style="fill: #000000;text-anchor:start;font-family:monospace;font-style:normal;font-weight:normal" x="543" y="573.2">+DMSZ-DB</text>
    <text font-size="12.8" style="fill: #000000;text-anchor:start;font-family:monospace;font-style:normal;font-weight:normal" x="543" y="589.2">+JASQ</text>
    <text font-size="12.8" style="fill: #000000;text-anchor:start;font-family:monospace;font-style:normal;font-weight:normal" x="543" y="605.2">+Specify</text>
    <text font-size="12.8" style="fill: #000000;text-anchor:start;font-family:monospace;font-style:normal;font-weight:normal" x="543" y="621.2">+SeSam</text>
    <rect style="fill: #ffffff" x="540" y="628" width="164" height="8"/>
    <rect style="fill: none; fill-opacity:0; stroke-width: 2; stroke: #000000" x="540" y="628" width="164" height="8"/>
  </g>
  <g>
    <rect style="fill: #ffffff" x="380" y="128" width="213.95" height="28"/>
    <rect style="fill: none; fill-opacity:0; stroke-width: 2; stroke: #000000" x="380" y="128" width="213.95" height="28"/>
    <text font-size="16" style="fill: #000000;text-anchor:middle;font-family:sans-serif;font-style:normal;font-weight:700" x="486.975" y="148">Environmental data store</text>
    <rect style="fill: #ffffff" x="380" y="156" width="213.95" height="8"/>
    <rect style="fill: none; fill-opacity:0; stroke-width: 2; stroke: #000000" x="380" y="156" width="213.95" height="8"/>
    <rect style="fill: #ffffff" x="380" y="164" width="213.95" height="8"/>
    <rect style="fill: none; fill-opacity:0; stroke-width: 2; stroke: #000000" x="380" y="164" width="213.95" height="8"/>
  </g>
  <g>
    <rect style="fill: #ffffff" x="520" y="286" width="58.5" height="28"/>
    <rect style="fill: none; fill-opacity:0; stroke-width: 2; stroke: #000000" x="520" y="286" width="58.5" height="28"/>
    <text font-size="16" style="fill: #000000;text-anchor:middle;font-family:sans-serif;font-style:normal;font-weight:700" x="549.25" y="306">Cache</text>
    <rect style="fill: #ffffff" x="520" y="314" width="58.5" height="8"/>
    <rect style="fill: none; fill-opacity:0; stroke-width: 2; stroke: #000000" x="520" y="314" width="58.5" height="8"/>
    <rect style="fill: #ffffff" x="520" y="322" width="58.5" height="8"/>
    <rect style="fill: none; fill-opacity:0; stroke-width: 2; stroke: #000000" x="520" y="322" width="58.5" height="8"/>
  </g>
  <g>
    <polyline style="fill: none; fill-opacity:0; stroke-width: 2; stroke: #000000" points="800,500 780,500 780,380 549.25,380 549.25,334.472 "/>
    <polyline style="fill: none; fill-opacity:0; stroke-width: 2; stroke: #000000" points="557.25,348.236 549.25,332.236 541.25,348.236 "/>
    <text font-size="12.7998" style="fill: #000000;text-anchor:middle;font-family:monospace;font-style:normal;font-weight:normal" x="664.625" y="376"></text>
    <text font-size="12.7998" style="fill: #000000;text-anchor:end;font-family:monospace;font-style:normal;font-weight:normal" x="796" y="496"></text>
    <text font-size="12.7998" style="fill: #000000;text-anchor:start;font-family:monospace;font-style:normal;font-weight:normal" x="560.25" y="342"></text>
  </g>
  <g>
    <polyline style="fill: none; fill-opacity:0; stroke-width: 2; stroke: #000000" points="800,640 760,640 760,400 486.974,400 486.974,176.472 "/>
    <polyline style="fill: none; fill-opacity:0; stroke-width: 2; stroke: #000000" points="494.974,190.236 486.974,174.236 478.974,190.236 "/>
    <text font-size="12.7998" style="fill: #000000;text-anchor:middle;font-family:monospace;font-style:normal;font-weight:normal" x="623.487" y="396"></text>
    <text font-size="12.7998" style="fill: #000000;text-anchor:end;font-family:monospace;font-style:normal;font-weight:normal" x="796" y="636"></text>
    <text font-size="12.7998" style="fill: #000000;text-anchor:start;font-family:monospace;font-style:normal;font-weight:normal" x="497.974" y="184"></text>
  </g>
  <g>
    <rect style="fill: #0596d2" x="660" y="20" width="840" height="340"/>
    <rect style="fill: none; fill-opacity:0; stroke-width: 2; stroke: #000000" x="660" y="20" width="840" height="340"/>
    <rect style="fill: #0596d2" x="660" y="0" width="81" height="20"/>
    <rect style="fill: none; fill-opacity:0; stroke-width: 2; stroke: #000000" x="660" y="0" width="81" height="20"/>
    <text font-size="12.7998" style="fill: #000000;text-anchor:start;font-family:monospace;font-style:normal;font-weight:normal" x="662" y="14">EEP-Engine</text>
  </g>
  <g>
    <polygon style="fill: #0596d2" points="662,21 1006.8,21 1018.8,33 1018.8,55 662,55 "/>
    <polygon style="fill: none; fill-opacity:0; stroke-width: 2.35099e-037; stroke: #0596d2" points="662,21 1006.8,21 1018.8,33 1018.8,55 662,55 "/>
    <polyline style="fill: none; fill-opacity:0; stroke-width: 1.17549e-037; stroke: #0596d2" points="1006.8,21 1006.8,33 1018.8,33 "/>
    <text font-size="12.8" style="fill: #000000;text-anchor:start;font-family:monospace;font-style:normal;font-weight:normal" x="668" y="43.65">
      <tspan x="668" y="43.65">(Aggregation analysis and processing engine)</tspan>
    </text>
  </g>
  <g>
    <rect style="fill: #ffffff" x="700" y="100" width="280" height="83.75"/>
    <rect style="fill: none; fill-opacity:0; stroke-width: 2; stroke: #000000" x="700" y="100" width="280" height="83.75"/>
    <rect style="fill: #ffffff" x="700" y="64" width="88.7" height="36"/>
    <rect style="fill: none; fill-opacity:0; stroke-width: 2; stroke: #000000" x="700" y="64" width="88.7" height="36"/>
    <text font-size="12.7998" style="fill: #000000;text-anchor:start;font-family:monospace;font-style:normal;font-weight:normal" x="702" y="78">&lt;&lt;modules&gt;&gt;</text>
    <text font-size="12.7998" style="fill: #000000;text-anchor:start;font-family:monospace;font-style:normal;font-weight:normal" x="702" y="94">Raster data</text>
  </g>
  <g>
    <rect style="fill: #0596d2" x="720" y="120" width="147.55" height="28"/>
    <rect style="fill: none; fill-opacity:0; stroke-width: 2; stroke: #000000" x="720" y="120" width="147.55" height="28"/>
    <text font-size="16" style="fill: #000000;text-anchor:middle;font-family:sans-serif;font-style:normal;font-weight:700" x="793.775" y="140">Raster connector</text>
    <rect style="fill: #0596d2" x="720" y="148" width="147.55" height="8"/>
    <rect style="fill: none; fill-opacity:0; stroke-width: 2; stroke: #000000" x="720" y="148" width="147.55" height="8"/>
    <rect style="fill: #0596d2" x="720" y="156" width="147.55" height="8"/>
    <rect style="fill: none; fill-opacity:0; stroke-width: 2; stroke: #000000" x="720" y="156" width="147.55" height="8"/>
  </g>
  <g>
    <rect style="fill: #0596d2" x="880" y="120" width="75.1" height="28"/>
    <rect style="fill: none; fill-opacity:0; stroke-width: 2; stroke: #000000" x="880" y="120" width="75.1" height="28"/>
    <text font-size="16" style="fill: #000000;text-anchor:middle;font-family:sans-serif;font-style:normal;font-weight:700" x="917.55" y="140">PostGIS</text>
    <rect style="fill: #0596d2" x="880" y="148" width="75.1" height="8"/>
    <rect style="fill: none; fill-opacity:0; stroke-width: 2; stroke: #000000" x="880" y="148" width="75.1" height="8"/>
    <rect style="fill: #0596d2" x="880" y="156" width="75.1" height="8"/>
    <rect style="fill: none; fill-opacity:0; stroke-width: 2; stroke: #000000" x="880" y="156" width="75.1" height="8"/>
  </g>
  <g>
    <rect style="fill: #ffffff" x="700" y="260" width="300" height="80"/>
    <rect style="fill: none; fill-opacity:0; stroke-width: 2; stroke: #000000" x="700" y="260" width="300" height="80"/>
    <rect style="fill: #ffffff" x="700" y="224" width="188.8" height="36"/>
    <rect style="fill: none; fill-opacity:0; stroke-width: 2; stroke: #000000" x="700" y="224" width="188.8" height="36"/>
    <text font-size="12.7998" style="fill: #000000;text-anchor:start;font-family:monospace;font-style:normal;font-weight:normal" x="702" y="238">&lt;&lt;modules&gt;&gt;</text>
    <text font-size="12.7998" style="fill: #000000;text-anchor:start;font-family:monospace;font-style:normal;font-weight:normal" x="702" y="254">Relational + vector data</text>
  </g>
  <g>
    <rect style="fill: #0596d2" x="720" y="280" width="126.3" height="28"/>
    <rect style="fill: none; fill-opacity:0; stroke-width: 2; stroke: #000000" x="720" y="280" width="126.3" height="28"/>
    <text font-size="16" style="fill: #000000;text-anchor:middle;font-family:sans-serif;font-style:normal;font-weight:700" x="783.15" y="300">XXL connector</text>
    <rect style="fill: #0596d2" x="720" y="308" width="126.3" height="8"/>
    <rect style="fill: none; fill-opacity:0; stroke-width: 2; stroke: #000000" x="720" y="308" width="126.3" height="8"/>
    <rect style="fill: #0596d2" x="720" y="316" width="126.3" height="8"/>
    <rect style="fill: none; fill-opacity:0; stroke-width: 2; stroke: #000000" x="720" y="316" width="126.3" height="8"/>
  </g>
  <g>
    <rect style="fill: #0596d2" x="860" y="280" width="121.6" height="28"/>
    <rect style="fill: none; fill-opacity:0; stroke-width: 2; stroke: #000000" x="860" y="280" width="121.6" height="28"/>
    <text font-size="16" style="fill: #000000;text-anchor:middle;font-family:sans-serif;font-style:normal;font-weight:700" x="920.8" y="300">SQL (spartial)</text>
    <rect style="fill: #0596d2" x="860" y="308" width="121.6" height="8"/>
    <rect style="fill: none; fill-opacity:0; stroke-width: 2; stroke: #000000" x="860" y="308" width="121.6" height="8"/>
    <rect style="fill: #0596d2" x="860" y="316" width="121.6" height="8"/>
    <rect style="fill: none; fill-opacity:0; stroke-width: 2; stroke: #000000" x="860" y="316" width="121.6" height="8"/>
  </g>
  <g>
    <polyline style="fill: none; fill-opacity:0; stroke-width: 2; stroke: #000000" points="593.95,142 639.475,142 639.475,141.875 695.528,141.875 "/>
    <polyline style="fill: none; fill-opacity:0; stroke-width: 2; stroke: #000000" points="681.764,149.875 697.764,141.875 681.764,133.875 "/>
    <text font-size="12.7998" style="fill: #000000;text-anchor:start;font-family:monospace;font-style:normal;font-weight:normal" x="641.475" y="137.938"></text>
    <text font-size="12.7998" style="fill: #000000;text-anchor:start;font-family:monospace;font-style:normal;font-weight:normal" x="597.95" y="138"></text>
    <text font-size="12.7998" style="fill: #000000;text-anchor:end;font-family:monospace;font-style:normal;font-weight:normal" x="680" y="137.875"></text>
  </g>
  <g>
    <polyline style="fill: none; fill-opacity:0; stroke-width: 2; stroke: #000000" points="578.5,300 579.5,300 684,300 695.528,300 "/>
    <polyline style="fill: none; fill-opacity:0; stroke-width: 2; stroke: #000000" points="681.764,308 697.764,300 681.764,292 "/>
    <text font-size="12.7998" style="fill: #000000;text-anchor:middle;font-family:monospace;font-style:normal;font-weight:normal" x="631.75" y="296"></text>
    <text font-size="12.7998" style="fill: #000000;text-anchor:start;font-family:monospace;font-style:normal;font-weight:normal" x="582.5" y="296"></text>
    <text font-size="12.7998" style="fill: #000000;text-anchor:end;font-family:monospace;font-style:normal;font-weight:normal" x="680" y="296"></text>
  </g>
  <g>
    <rect style="fill: #ffffff" x="1040" y="100" width="420" height="100"/>
    <rect style="fill: none; fill-opacity:0; stroke-width: 2; stroke: #000000" x="1040" y="100" width="420" height="100"/>
    <rect style="fill: #ffffff" x="1040" y="64" width="96.4" height="36"/>
    <rect style="fill: none; fill-opacity:0; stroke-width: 2; stroke: #000000" x="1040" y="64" width="96.4" height="36"/>
    <text font-size="12.7998" style="fill: #000000;text-anchor:start;font-family:monospace;font-style:normal;font-weight:normal" x="1042" y="78">&lt;&lt;modules&gt;&gt;</text>
    <text font-size="12.7998" style="fill: #000000;text-anchor:start;font-family:monospace;font-style:normal;font-weight:normal" x="1042" y="94">Connectivity</text>
  </g>
  <g>
    <rect style="fill: #0596d2" x="1060" y="120" width="216.45" height="42"/>
    <rect style="fill: none; fill-opacity:0; stroke-width: 2; stroke: #000000" x="1060" y="120" width="216.45" height="42"/>
    <text font-size="16" style="fill: #000000;text-anchor:middle;font-family:sans-serif;font-style:normal;font-weight:700" x="1168.23" y="140">OGC-compliant interfaces</text>
    <text font-size="11.2" style="fill: #000000;text-anchor:middle;font-family:sans-serif;font-style:normal;font-weight:normal" x="1168.23" y="155.2">(WMS, WFS, WPS, WCS, ...)</text>
    <rect style="fill: #0596d2" x="1060" y="162" width="216.45" height="8"/>
    <rect style="fill: none; fill-opacity:0; stroke-width: 2; stroke: #000000" x="1060" y="162" width="216.45" height="8"/>
    <rect style="fill: #0596d2" x="1060" y="170" width="216.45" height="8"/>
    <rect style="fill: none; fill-opacity:0; stroke-width: 2; stroke: #000000" x="1060" y="170" width="216.45" height="8"/>
  </g>
  <g>
    <rect style="fill: #0596d2" x="1300" y="120" width="136.7" height="42"/>
    <rect style="fill: none; fill-opacity:0; stroke-width: 2; stroke: #000000" x="1300" y="120" width="136.7" height="42"/>
    <text font-size="16" style="fill: #000000;text-anchor:middle;font-family:sans-serif;font-style:normal;font-weight:700" x="1368.35" y="140">Webservice API</text>
    <text font-size="11.2" style="fill: #000000;text-anchor:middle;font-family:sans-serif;font-style:normal;font-weight:normal" x="1368.35" y="155.2">(REST)</text>
    <rect style="fill: #0596d2" x="1300" y="162" width="136.7" height="8"/>
    <rect style="fill: none; fill-opacity:0; stroke-width: 2; stroke: #000000" x="1300" y="162" width="136.7" height="8"/>
    <rect style="fill: #0596d2" x="1300" y="170" width="136.7" height="8"/>
    <rect style="fill: none; fill-opacity:0; stroke-width: 2; stroke: #000000" x="1300" y="170" width="136.7" height="8"/>
  </g>
  <g>
    <polygon style="fill: #0596d2" points="1040,220 1346.3,220 1358.3,232 1358.3,334 1040,334 "/>
    <polygon style="fill: none; fill-opacity:0; stroke-width: 2; stroke: #0596d2" points="1040,220 1346.3,220 1358.3,232 1358.3,334 1040,334 "/>
    <polyline style="fill: none; fill-opacity:0; stroke-width: 1; stroke: #0596d2" points="1346.3,220 1346.3,232 1358.3,232 "/>
    <text font-size="12.8" style="fill: #000000;text-anchor:start;font-family:monospace;font-style:normal;font-weight:normal" x="1047" y="243.65">
      <tspan x="1047" y="243.65">+ Integrated raster + vector processing</tspan>
      <tspan x="1047" y="259.65">+ Advanced indexing</tspan>
      <tspan x="1047" y="275.65">+ GPGPU processing</tspan>
      <tspan x="1047" y="291.65">+ Distributed architecture</tspan>
      <tspan x="1047" y="307.65">+ Data lineage</tspan>
      <tspan x="1047" y="323.65">+ ...</tspan>
    </text>
  </g>
  <g>
    <rect style="fill: #c9c9c9" x="1280" y="-240" width="220" height="200"/>
    <rect style="fill: none; fill-opacity:0; stroke-width: 2; stroke: #000000" x="1280" y="-240" width="220" height="200"/>
    <rect style="fill: #c9c9c9" x="1280" y="-276" width="196.5" height="36"/>
    <rect style="fill: none; fill-opacity:0; stroke-width: 2; stroke: #000000" x="1280" y="-276" width="196.5" height="36"/>
    <text font-size="12.7998" style="fill: #000000;text-anchor:start;font-family:monospace;font-style:normal;font-weight:normal" x="1282" y="-262">&lt;&lt;Other clients / users&gt;&gt;</text>
    <text font-size="12.7998" style="fill: #000000;text-anchor:start;font-family:monospace;font-style:normal;font-weight:normal" x="1282" y="-246"></text>
  </g>
  <g>
    <polygon style="fill: #c9c9c9" points="1300,-220 1436.9,-220 1448.9,-208 1448.9,-154 1300,-154 "/>
    <polygon style="fill: none; fill-opacity:0; stroke-width: 2; stroke: #c9c9c9" points="1300,-220 1436.9,-220 1448.9,-208 1448.9,-154 1300,-154 "/>
    <polyline style="fill: none; fill-opacity:0; stroke-width: 1; stroke: #c9c9c9" points="1436.9,-220 1436.9,-208 1448.9,-208 "/>
    <text font-size="12.8" style="fill: #000000;text-anchor:start;font-family:monospace;font-style:normal;font-weight:normal" x="1307" y="-196.35">
      <tspan x="1307" y="-196.35">+ WebServices</tspan>
      <tspan x="1307" y="-180.35">+ Workflow System</tspan>
      <tspan x="1307" y="-164.35">+ Desktop GIS</tspan>
    </text>
  </g>
  <g>
    <rect style="fill: #fa9646" x="660" y="-240" width="578.9" height="200"/>
    <rect style="fill: none; fill-opacity:0; stroke-width: 2; stroke: #000000" x="660" y="-240" width="578.9" height="200"/>
    <rect style="fill: #fa9646" x="660" y="-276" width="134.9" height="36"/>
    <rect style="fill: none; fill-opacity:0; stroke-width: 2; stroke: #000000" x="660" y="-276" width="134.9" height="36"/>
    <text font-size="12.7998" style="fill: #000000;text-anchor:start;font-family:monospace;font-style:normal;font-weight:normal" x="662" y="-262">&lt;&lt;portal&gt;&gt;</text>
    <text font-size="12.7998" style="fill: #000000;text-anchor:start;font-family:monospace;font-style:normal;font-weight:normal" x="662" y="-246">OpenSocial Widget</text>
  </g>
  <g>
    <polygon style="fill: #fa9646" points="1000,-220 1221.6,-220 1233.6,-208 1233.6,-74 1000,-74 "/>
    <polygon style="fill: none; fill-opacity:0; stroke-width: 2; stroke: #fa9646" points="1000,-220 1221.6,-220 1233.6,-208 1233.6,-74 1000,-74 "/>
    <polyline style="fill: none; fill-opacity:0; stroke-width: 1; stroke: #fa9646" points="1221.6,-220 1221.6,-208 1233.6,-208 "/>
    <text font-size="12.8" style="fill: #000000;text-anchor:start;font-family:monospace;font-style:normal;font-weight:normal" x="1007" y="-196.35">
      <tspan x="1007" y="-196.35">+ (Graphical) query builder</tspan>
      <tspan x="1007" y="-180.35">+ Save results + querys</tspan>
      <tspan x="1007" y="-164.35">+ Download data / results</tspan>
      <tspan x="1007" y="-148.35">+ WebGL rendering</tspan>
      <tspan x="1007" y="-132.35">+ Use your private data</tspan>
      <tspan x="1007" y="-116.35">+ Statistics</tspan>
      <tspan x="1007" y="-100.35">+ Clustering / Heatmaps</tspan>
      <tspan x="1007" y="-84.35">+ Data lineage visualisation</tspan>
    </text>
  </g>
  <g>
    <rect style="fill: #0596d2" x="700" y="-200" width="170.3" height="56"/>
    <rect style="fill: none; fill-opacity:0; stroke-width: 2; stroke: #000000" x="700" y="-200" width="170.3" height="56"/>
    <text font-size="16" style="fill: #000000;text-anchor:middle;font-family:sans-serif;font-style:normal;font-weight:700" x="785.15" y="-180">Interactive Analysis</text>
    <text font-size="11.2" style="fill: #000000;text-anchor:middle;font-family:sans-serif;font-style:normal;font-weight:normal" x="785.15" y="-164.8">(based on</text>
    <text font-size="11.2" style="fill: #000000;text-anchor:middle;font-family:sans-serif;font-style:normal;font-weight:normal" x="785.15" y="-150.8">OpenLayers)</text>
    <rect style="fill: #0596d2" x="700" y="-144" width="170.3" height="8"/>
    <rect style="fill: none; fill-opacity:0; stroke-width: 2; stroke: #000000" x="700" y="-144" width="170.3" height="8"/>
    <rect style="fill: #0596d2" x="700" y="-136" width="170.3" height="8"/>
    <rect style="fill: none; fill-opacity:0; stroke-width: 2; stroke: #000000" x="700" y="-136" width="170.3" height="8"/>
  </g>
  <g>
    <rect style="fill: #0596d2" x="360" y="-240" width="260" height="200"/>
    <rect style="fill: none; fill-opacity:0; stroke-width: 2; stroke: #000000" x="360" y="-240" width="260" height="200"/>
    <rect style="fill: #0596d2" x="360" y="-260" width="165.7" height="20"/>
    <rect style="fill: none; fill-opacity:0; stroke-width: 2; stroke: #000000" x="360" y="-260" width="165.7" height="20"/>
    <text font-size="12.7998" style="fill: #000000;text-anchor:start;font-family:monospace;font-style:normal;font-weight:normal" x="362" y="-246">Work data of the user</text>
  </g>
  <g>
    <polygon style="fill: #0596d2" points="380,-220 570.8,-220 582.8,-208 582.8,-170 380,-170 "/>
    <polygon style="fill: none; fill-opacity:0; stroke-width: 2; stroke: #0596d2" points="380,-220 570.8,-220 582.8,-208 582.8,-170 380,-170 "/>
    <polyline style="fill: none; fill-opacity:0; stroke-width: 1; stroke: #0596d2" points="570.8,-220 570.8,-208 582.8,-208 "/>
    <text font-size="12.8" style="fill: #000000;text-anchor:start;font-family:monospace;font-style:normal;font-weight:normal" x="387" y="-196.35">
      <tspan x="387" y="-196.35">for preview or analytics</tspan>
      <tspan x="387" y="-180.35">(not for archiving)</tspan>
    </text>
  </g>
  <g>
    <polyline style="fill: none; fill-opacity:0; stroke-width: 2; stroke: #000000" points="620,-140 620,-140 620,-172 695.528,-172 "/>
    <polyline style="fill: none; fill-opacity:0; stroke-width: 2; stroke: #000000" points="681.764,-164 697.764,-172 681.764,-180 "/>
    <text font-size="12.7998" style="fill: #000000;text-anchor:start;font-family:monospace;font-style:normal;font-weight:normal" x="622" y="-160"></text>
    <text font-size="12.7998" style="fill: #000000;text-anchor:start;font-family:monospace;font-style:normal;font-weight:normal" x="624" y="-144"></text>
    <text font-size="12.7998" style="fill: #000000;text-anchor:end;font-family:monospace;font-style:normal;font-weight:normal" x="680" y="-176"></text>
  </g>
  <g>
    <polyline style="fill: none; fill-opacity:0; stroke-width: 2; stroke: #000000" points="1168.23,120 1168.23,0 949.45,0 949.45,-35.5279 "/>
    <polyline style="fill: none; fill-opacity:0; stroke-width: 2; stroke: #000000" points="957.45,-21.7639 949.45,-37.7639 941.45,-21.7639 "/>
    <text font-size="12.7998" style="fill: #000000;text-anchor:middle;font-family:monospace;font-style:normal;font-weight:normal" x="1058.84" y="-4"></text>
    <text font-size="12.7998" style="fill: #000000;text-anchor:start;font-family:monospace;font-style:normal;font-weight:normal" x="1172.23" y="116"></text>
    <text font-size="12.7998" style="fill: #000000;text-anchor:start;font-family:monospace;font-style:normal;font-weight:normal" x="960.45" y="-28"></text>
  </g>
  <g>
    <polyline style="fill: none; fill-opacity:0; stroke-width: 2; stroke: #000000" points="1368.35,120 1368.35,0 949.45,0 949.45,-35.5279 "/>
    <polyline style="fill: none; fill-opacity:0; stroke-width: 2; stroke: #000000" points="957.45,-21.7639 949.45,-37.7639 941.45,-21.7639 "/>
    <text font-size="12.7998" style="fill: #000000;text-anchor:middle;font-family:monospace;font-style:normal;font-weight:normal" x="1158.9" y="-4"></text>
    <text font-size="12.7998" style="fill: #000000;text-anchor:start;font-family:monospace;font-style:normal;font-weight:normal" x="1372.35" y="116"></text>
    <text font-size="12.7998" style="fill: #000000;text-anchor:start;font-family:monospace;font-style:normal;font-weight:normal" x="960.45" y="-28"></text>
  </g>
  <g>
    <polyline style="fill: none; fill-opacity:0; stroke-width: 2; stroke: #000000" points="1168.23,120 1220,120 1220,80 1390,80 1390,-40 "/>
    <text font-size="12.7998" style="fill: #000000;text-anchor:middle;font-family:monospace;font-style:normal;font-weight:normal" x="1305" y="76"></text>
    <text font-size="12.7998" style="fill: #000000;text-anchor:start;font-family:monospace;font-style:normal;font-weight:normal" x="1172.23" y="116"></text>
    <text font-size="12.7998" style="fill: #000000;text-anchor:start;font-family:monospace;font-style:normal;font-weight:normal" x="1394" y="-28"></text>
  </g>
  <g>
    <polyline style="fill: none; fill-opacity:0; stroke-width: 2; stroke: #000000" points="1368.35,120 1400,120 1400,80 1390,80 1390,-35.5279 "/>
    <polyline style="fill: none; fill-opacity:0; stroke-width: 2; stroke: #000000" points="1398,-21.7639 1390,-37.7639 1382,-21.7639 "/>
    <text font-size="12.7998" style="fill: #000000;text-anchor:middle;font-family:monospace;font-style:normal;font-weight:normal" x="1395" y="76"></text>
    <text font-size="12.7998" style="fill: #000000;text-anchor:start;font-family:monospace;font-style:normal;font-weight:normal" x="1372.35" y="116"></text>
    <text font-size="12.7998" style="fill: #000000;text-anchor:start;font-family:monospace;font-style:normal;font-weight:normal" x="1401" y="-28"></text>
  </g>
</svg>
